<svg xmlns="http://www.w3.org/2000/svg" width="375" viewBox="0 0 375 375" height="375" version="1.0"><g fill="#FFF"><g><g><path d="M 8.578125 -4.578125 C 10.679688 -20.796875 13.445312 -36.722656 16.875 -52.359375 C 20.3125 -68.003906 23.75 -83.835938 27.1875 -99.859375 C 30.613281 -115.878906 33.898438 -131.804688 37.046875 -147.640625 C 40.203125 -163.472656 43.6875 -179.398438 47.5 -195.421875 C 47.875 -197.140625 49.394531 -199.046875 52.0625 -201.140625 C 54.738281 -203.242188 57.316406 -204.296875 59.796875 -204.296875 C 61.898438 -204.296875 63.332031 -203.242188 64.09375 -201.140625 C 68.476562 -189.316406 72.097656 -177.253906 74.953125 -164.953125 C 77.816406 -152.648438 80.296875 -140.296875 82.390625 -127.890625 C 84.492188 -115.492188 86.453125 -103.046875 88.265625 -90.546875 C 90.078125 -78.054688 92.128906 -65.613281 94.421875 -53.21875 C 96.898438 -62.375 99.757812 -72.148438 103 -82.546875 C 106.25 -92.941406 109.78125 -103.289062 113.59375 -113.59375 C 117.40625 -123.894531 121.550781 -133.859375 126.03125 -143.484375 C 130.519531 -153.117188 135.242188 -161.753906 140.203125 -169.390625 C 140.773438 -170.335938 141.773438 -171.097656 143.203125 -171.671875 C 144.628906 -172.242188 146.109375 -172.53125 147.640625 -172.53125 C 150.117188 -172.53125 151.359375 -171.671875 151.359375 -169.953125 C 151.359375 -169.578125 151.265625 -169.101562 151.078125 -168.53125 C 148.972656 -162.425781 146.535156 -156.507812 143.765625 -150.78125 C 141.003906 -145.0625 138.484375 -139.242188 136.203125 -133.328125 C 128.953125 -114.828125 122.222656 -95.65625 116.015625 -75.8125 C 109.816406 -55.976562 105.289062 -36.238281 102.4375 -16.59375 C 102.050781 -14.113281 100.664062 -12.015625 98.28125 -10.296875 C 95.894531 -8.578125 93.367188 -7.71875 90.703125 -7.71875 C 87.648438 -7.71875 85.550781 -9.242188 84.40625 -12.296875 C 79.832031 -24.316406 76.445312 -36.570312 74.25 -49.0625 C 72.050781 -61.5625 70.1875 -74.148438 68.65625 -86.828125 C 67.132812 -99.515625 65.5625 -112.203125 63.9375 -124.890625 C 62.320312 -137.578125 59.988281 -150.117188 56.9375 -162.515625 C 54.84375 -152.410156 52.648438 -142.347656 50.359375 -132.328125 C 48.066406 -122.316406 45.875 -112.253906 43.78125 -102.140625 C 40.34375 -85.929688 36.8125 -69.863281 33.1875 -53.9375 C 29.5625 -38.007812 25.554688 -22.128906 21.171875 -6.296875 C 20.785156 -4.765625 19.59375 -3.378906 17.59375 -2.140625 C 15.59375 -0.898438 13.734375 -0.28125 12.015625 -0.28125 C 9.722656 -0.28125 8.578125 -1.519531 8.578125 -4 C 8.578125 -4.195312 8.578125 -4.390625 8.578125 -4.578125 Z M 8.578125 -4.578125" transform="translate(38.617 304.625)"/></g></g></g><g fill="#FFF"><g><g><path d="M 10.59375 -184.84375 C 11.726562 -188.082031 13.628906 -190.609375 16.296875 -192.421875 C 18.972656 -194.234375 21.929688 -195.804688 25.171875 -197.140625 C 28.421875 -198.472656 31.710938 -199.664062 35.046875 -200.71875 C 38.390625 -201.769531 41.203125 -203.148438 43.484375 -204.859375 C 46.160156 -206.773438 47.972656 -209.734375 48.921875 -213.734375 C 49.878906 -217.742188 50.785156 -221.796875 51.640625 -225.890625 C 52.503906 -229.992188 53.742188 -233.570312 55.359375 -236.625 C 56.984375 -239.675781 59.609375 -241.203125 63.234375 -241.203125 C 64.378906 -241.203125 65.285156 -240.628906 65.953125 -239.484375 C 66.617188 -238.335938 67.09375 -236.953125 67.375 -235.328125 C 67.664062 -233.710938 67.8125 -232.140625 67.8125 -230.609375 C 67.8125 -229.085938 67.8125 -227.945312 67.8125 -227.1875 C 67.8125 -224.507812 67.710938 -221.929688 67.515625 -219.453125 C 67.328125 -216.972656 67.046875 -214.398438 66.671875 -211.734375 C 78.109375 -213.253906 89.453125 -215.253906 100.703125 -217.734375 C 111.960938 -220.210938 123.410156 -221.453125 135.046875 -221.453125 L 136.203125 -221.453125 C 138.679688 -221.453125 141.207031 -221.359375 143.78125 -221.171875 C 146.351562 -220.984375 148.5 -220.457031 150.21875 -219.59375 C 151.9375 -218.738281 152.9375 -217.453125 153.21875 -215.734375 C 153.507812 -214.015625 152.601562 -211.535156 150.5 -208.296875 C 148.40625 -207.347656 145.019531 -206.535156 140.34375 -205.859375 C 135.664062 -205.191406 130.414062 -204.570312 124.59375 -204 C 118.78125 -203.4375 112.675781 -202.914062 106.28125 -202.4375 C 99.894531 -201.957031 93.984375 -201.382812 88.546875 -200.71875 C 83.117188 -200.050781 78.445312 -199.285156 74.53125 -198.421875 C 70.625 -197.566406 68.191406 -196.472656 67.234375 -195.140625 C 65.523438 -192.847656 63.710938 -187.695312 61.796875 -179.6875 C 59.890625 -171.675781 57.984375 -162.085938 56.078125 -150.921875 C 54.171875 -139.765625 52.265625 -127.703125 50.359375 -114.734375 C 48.453125 -101.765625 46.59375 -89.222656 44.78125 -77.109375 C 42.96875 -64.992188 41.109375 -53.929688 39.203125 -43.921875 C 37.296875 -33.910156 35.390625 -26.234375 33.484375 -20.890625 C 32.523438 -18.023438 30.992188 -15.066406 28.890625 -12.015625 C 26.796875 -8.960938 24.03125 -7.4375 20.59375 -7.4375 C 19.457031 -7.4375 18.601562 -7.863281 18.03125 -8.71875 C 17.457031 -9.582031 17.023438 -10.632812 16.734375 -11.875 C 16.453125 -13.113281 16.3125 -14.351562 16.3125 -15.59375 C 16.3125 -16.832031 16.3125 -17.832031 16.3125 -18.59375 C 16.3125 -30.226562 17.550781 -41.671875 20.03125 -52.921875 C 22.507812 -64.179688 24.894531 -75.535156 27.1875 -86.984375 C 30.8125 -104.722656 34.242188 -122.269531 37.484375 -139.625 C 40.722656 -156.988281 43.296875 -174.632812 45.203125 -192.5625 C 40.242188 -190.84375 35.378906 -188.835938 30.609375 -186.546875 C 25.847656 -184.265625 20.703125 -183.125 15.171875 -183.125 C 13.066406 -183.125 11.539062 -183.695312 10.59375 -184.84375 Z M 10.59375 -184.84375" transform="translate(187.111 304.625)"/></g></g></g></svg>